<svg width="18" height="18" viewBox="0 0 18 18" fill="none" xmlns="http://www.w3.org/2000/svg">
<path d="M2.25 6.5C2.25 5.55719 2.25 5.08579 2.54289 4.79289C2.83579 4.5 3.30719 4.5 4.25 4.5H11.6796C12.2036 4.5 12.4656 4.5 12.6867 4.61833C12.9078 4.73665 13.0531 4.95463 13.3437 5.3906L15.0104 7.8906C15.3689 8.42835 15.5481 8.69722 15.5481 9C15.5481 9.30278 15.3689 9.57165 15.0104 10.1094L13.3437 12.6094C13.0531 13.0454 12.9078 13.2633 12.6867 13.3817C12.4656 13.5 12.2036 13.5 11.6796 13.5H4.25C3.30719 13.5 2.83579 13.5 2.54289 13.2071C2.25 12.9142 2.25 12.4428 2.25 11.5V6.5Z" stroke="#FED725" stroke-opacity="0.87" stroke-width="2"/>
<circle cx="11.25" cy="9" r="0.75" fill="#FED725" fill-opacity="0.87" stroke="#FED725" stroke-opacity="0.87" stroke-width="2"/>
</svg>
