<svg width="588" height="297" viewBox="0 0 588 297" fill="none" xmlns="http://www.w3.org/2000/svg">
<path d="M90.8 254.6C96.5333 252.067 101.333 248.667 105.2 244.4C111.733 237.067 116.667 226.133 120 211.6L122.6 212V258H120L113.2 247C107.2 251.4 100.667 254.867 93.6 257.4C86.6667 259.933 79.9333 261.2 73.4 261.2C61.8 261.2 51.1333 258 41.4 251.6C31.8 245.2 24.2 236.533 18.6 225.6C13.1333 214.533 10.4 202.333 10.4 189C10.4 175.8 13.1333 163.667 18.6 152.6C24.2 141.533 31.8 132.8 41.4 126.4C51 120 61.5333 116.8 73 116.8C79 116.8 85.1333 117.8 91.4 119.8C97.8 121.667 104.867 124.667 112.6 128.8L117.4 119.2H120L122 164.2L119.2 165C117.333 154.733 114.4 146.267 110.4 139.6C106.4 133.067 101.2 128.067 94.8 124.6C88.4 121 81.3333 119.2 73.6 119.2C59.4667 119.2 48.6 125.267 41 137.4C33.4 149.533 29.6 166.733 29.6 189C29.6 211.133 33.4 228.267 41 240.4C48.6 252.4 59.4 258.4 73.4 258.4C79.4 258.4 85.2 257.133 90.8 254.6ZM208.556 116.8C220.156 116.8 230.756 120 240.356 126.4C250.09 132.8 257.69 141.533 263.156 152.6C268.756 163.533 271.556 175.667 271.556 189C271.556 202.333 268.756 214.533 263.156 225.6C257.69 236.533 250.09 245.2 240.356 251.6C230.756 258 220.156 261.2 208.556 261.2C196.956 261.2 186.29 258 176.556 251.6C166.956 245.2 159.356 236.533 153.756 225.6C148.29 214.533 145.556 202.333 145.556 189C145.556 175.667 148.29 163.533 153.756 152.6C159.356 141.533 166.956 132.8 176.556 126.4C186.29 120 196.956 116.8 208.556 116.8ZM164.756 189C164.756 211.267 168.556 228.467 176.156 240.6C183.756 252.6 194.556 258.6 208.556 258.6C222.556 258.6 233.356 252.6 240.956 240.6C248.556 228.467 252.356 211.267 252.356 189C252.356 166.733 248.556 149.533 240.956 137.4C233.356 125.267 222.556 119.2 208.556 119.2C194.556 119.2 183.756 125.267 176.156 137.4C168.556 149.533 164.756 166.733 164.756 189ZM430.659 123.2V254.8L448.059 256.4V258H398.859V256.4L415.259 254.8V133H414.459L366.259 261.2H364.259L310.459 132.8H309.659V245.8C309.659 249 310.059 251.267 310.859 252.6C311.659 253.8 313.259 254.533 315.659 254.8L329.859 256.4V258H286.059V256.4L300.459 254.8C302.859 254.533 304.459 253.8 305.259 252.6C306.059 251.267 306.459 249 306.459 245.8V125.8C305.526 124.2 304.326 123.133 302.859 122.6C301.526 121.933 299.526 121.6 296.859 121.6H287.659V120H321.859L371.059 237.4H371.859L415.859 120H448.059V121.6L430.659 123.2ZM463.078 120H511.278V121.6L494.878 123.2V254.8L511.278 256.4V258H463.078V256.4L479.478 254.8V123.2L463.078 121.6V120ZM527.336 120H575.536V121.6L559.136 123.2V254.8L575.536 256.4V258H527.336V256.4L543.736 254.8V123.2L527.336 121.6V120Z" fill="#FEE14A"/>
<path d="M163.361 1.8986C196.384 48.9874 161.535 57.653 173.144 94.8716C174.754 100.036 169.04 99.8283 166.939 97.129C136.655 58.2455 175.22 41.9325 161.44 3.03163C160.274 -0.255154 161.175 -1.2191 163.361 1.8986Z" fill="#FEE14A"/>
<path d="M239.361 4.8986C272.384 51.9874 237.535 60.653 249.144 97.8716C250.754 103.036 245.04 102.828 242.939 100.129C212.655 61.2455 251.22 44.9325 237.44 6.03163C236.274 2.74485 237.175 1.7809 239.361 4.8986Z" fill="#FEE14A"/>
<path d="M201.361 1.8986C234.384 48.9874 199.535 57.653 211.144 94.8716C212.754 100.036 207.04 99.8283 204.939 97.129C174.655 58.2455 213.22 41.9325 199.44 3.03163C198.274 -0.255154 199.175 -1.2191 201.361 1.8986Z" fill="#FEE14A"/>
<circle cx="519.5" cy="228.5" r="61" transform="rotate(180 519.5 228.5)" stroke="url(#paint0_linear_276_72)" stroke-width="15"/>
<defs>
<linearGradient id="paint0_linear_276_72" x1="519.5" y1="160" x2="519.5" y2="297" gradientUnits="userSpaceOnUse">
<stop offset="0.215" stop-color="#FEE14A"/>
<stop offset="0.2151" stop-color="#666666" stop-opacity="0"/>
</linearGradient>
</defs>
</svg>
