<svg width="18" height="18" viewBox="0 0 18 18" fill="none" xmlns="http://www.w3.org/2000/svg">
<path d="M7.60777 4.97068C8.19773 3.49993 8.4927 2.76456 8.99995 2.76456C9.50719 2.76456 9.80217 3.49993 10.3921 4.97068L10.4196 5.03917C10.7529 5.87007 10.9195 6.28552 11.2592 6.53804C11.5988 6.79055 12.0447 6.83048 12.9363 6.91034L13.0975 6.92478C14.5569 7.05547 15.2866 7.12082 15.4427 7.58506C15.5989 8.0493 15.057 8.5423 13.9732 9.52832L13.6115 9.8574C13.0628 10.3565 12.7885 10.6061 12.6607 10.9332C12.6368 10.9942 12.617 11.0567 12.6013 11.1203C12.5173 11.4613 12.5976 11.8234 12.7583 12.5475L12.8083 12.7729C13.1035 14.1036 13.2511 14.769 12.9934 15.056C12.8971 15.1632 12.7719 15.2405 12.6328 15.2784C12.2607 15.38 11.7323 14.9494 10.6756 14.0884C9.98172 13.5229 9.63478 13.2402 9.23646 13.1766C9.07978 13.1516 8.92012 13.1516 8.76344 13.1766C8.36511 13.2402 8.01817 13.5229 7.32429 14.0884C6.26758 14.9494 5.73922 15.38 5.36707 15.2784C5.22801 15.2405 5.10283 15.1632 5.00651 15.056C4.74875 14.769 4.89638 14.1036 5.19163 12.7729L5.24164 12.5475C5.4023 11.8234 5.48262 11.4613 5.39858 11.1203C5.38291 11.0567 5.36308 10.9942 5.33923 10.9332C5.21137 10.6061 4.93706 10.3565 4.38843 9.8574L4.02672 9.52832C2.94293 8.5423 2.40104 8.0493 2.55718 7.58506C2.71331 7.12082 3.44299 7.05547 4.90235 6.92478L5.06355 6.91034C5.95524 6.83048 6.40109 6.79055 6.74072 6.53804C7.08036 6.28552 7.24701 5.87007 7.5803 5.03917L7.60777 4.97068Z" stroke="#FED725" stroke-width="2"/>
<path d="M12.75 4.5L14.25 3" stroke="#FEE14A" stroke-opacity="0.37" stroke-width="2" stroke-linecap="round"/>
<path d="M15 12L16.5 13.5" stroke="#FEE14A" stroke-opacity="0.37" stroke-width="2" stroke-linecap="round"/>
<path d="M9 14.625V16.5" stroke="#FEE14A" stroke-opacity="0.37" stroke-width="2" stroke-linecap="round"/>
<path d="M7 4.5L5 3" stroke="#FEE14A" stroke-opacity="0.37" stroke-width="2" stroke-linecap="round"/>
<path d="M4 12L2 13.5" stroke="#FEE14A" stroke-opacity="0.37" stroke-width="2" stroke-linecap="round"/>
</svg>
