<svg width="28" height="28" viewBox="0 0 28 28" fill="none" xmlns="http://www.w3.org/2000/svg">
<path d="M7 2.33333L3.5 7V23.3333C3.5 23.9522 3.74583 24.5457 4.18342 24.9832C4.621 25.4208 5.21449 25.6667 5.83333 25.6667H22.1667C22.7855 25.6667 23.379 25.4208 23.8166 24.9832C24.2542 24.5457 24.5 23.9522 24.5 23.3333V7L21 2.33333H7Z" stroke="white" stroke-width="1.5" stroke-linecap="round" stroke-linejoin="round"/>
<path d="M3.5 7H24.5" stroke="white" stroke-width="1.5" stroke-linecap="round" stroke-linejoin="round"/>
<path d="M18.6666 11.6667C18.6666 12.9043 18.175 14.0913 17.2998 14.9665C16.4246 15.8417 15.2377 16.3333 14 16.3333C12.7623 16.3333 11.5753 15.8417 10.7001 14.9665C9.82498 14.0913 9.33331 12.9043 9.33331 11.6667" stroke="white" stroke-width="1.5" stroke-linecap="round" stroke-linejoin="round"/>
</svg>
