<svg width="28" height="28" viewBox="0 0 28 28" fill="none" xmlns="http://www.w3.org/2000/svg">
<path d="M10.5 25.6667C11.1443 25.6667 11.6667 25.1443 11.6667 24.5C11.6667 23.8557 11.1443 23.3333 10.5 23.3333C9.85568 23.3333 9.33334 23.8557 9.33334 24.5C9.33334 25.1443 9.85568 25.6667 10.5 25.6667Z" stroke="white" stroke-width="1.5" stroke-linecap="round" stroke-linejoin="round"/>
<path d="M23.3333 25.6667C23.9777 25.6667 24.5 25.1443 24.5 24.5C24.5 23.8557 23.9777 23.3333 23.3333 23.3333C22.689 23.3333 22.1667 23.8557 22.1667 24.5C22.1667 25.1443 22.689 25.6667 23.3333 25.6667Z" stroke="white" stroke-width="1.5" stroke-linecap="round" stroke-linejoin="round"/>
<path d="M1.16666 1.16667H5.83332L8.95999 16.7883C9.06667 17.3255 9.35888 17.808 9.78546 18.1514C10.212 18.4947 10.7458 18.6772 11.2933 18.6667H22.6333C23.1808 18.6772 23.7146 18.4947 24.1412 18.1514C24.5678 17.808 24.86 17.3255 24.9667 16.7883L26.8333 7.00001H6.99999" stroke="white" stroke-width="1.5" stroke-linecap="round" stroke-linejoin="round"/>
</svg>
